# xmcd CD database file
#
# Track frame offsets:
#	150
#	19866
#	52861
#	74672
#	113937
#	148585
#	183645
#	207755
#	216959
#	243512
#	283619
#	300618
#
# Disc length: 4379 seconds
#
# Revision: 0
# Processed by: cddbd v1.5.2PL0 Copyright (c) Steve Scherf et al.
# Submitted via: CDex 1.51
#
DISCID=b811190c
DTITLE=Maria Laura Baccarini - Regis Huby - Furrow (A Cole Porter Tribute)
DYEAR=2016
DGENRE=Jazz
TTITLE0=Anything Goes
TTITLE1=I Get A Kick Out Of You
TTITLE2=Just One Of Those Things
TTITLE3=So In Love
TTITLE4=What Is This Thing Called Love
TTITLE5=My Heart Belongs To Daddy
TTITLE6=I've Got You Under My Skin
TTITLE7=Too Darn Hot
TTITLE8=It's De-Lovely
TTITLE9=Night And Day
TTITLE10=Ev'ry Time We Say Goodbye
TTITLE11=Love For Sale
EXTD=YEAR: 2016
EXTT0=
EXTT1=
EXTT2=
EXTT3=
EXTT4=
EXTT5=
EXTT6=
EXTT7=
EXTT8=
EXTT9=
EXTT10=
EXTT11=
PLAYORDER=
